<?xml version="1.0" standalone="no"?>
<!DOCTYPE svg PUBLIC "-//W3C//DTD SVG 20010904//EN"
 "http://www.w3.org/TR/2001/REC-SVG-20010904/DTD/svg10.dtd">
<svg version="1.0" xmlns="http://www.w3.org/2000/svg"
 width="123.000000pt" height="123.000000pt" viewBox="0 0 123.000000 123.000000"
 preserveAspectRatio="xMidYMid meet">
<metadata>
Created by potrace 1.14, written by Peter Selinger 2001-2017
</metadata>
<g transform="translate(0.000000,123.000000) scale(0.100000,-0.100000)"
fill="#000000" stroke="none">
<path d="M767 1118 c54 -26 133 -97 116 -104 -9 -4 -10 -11 -3 -25 6 -10 8
-19 4 -19 -4 0 -1 -8 7 -18 9 -11 6 -10 -7 3 -24 24 -41 35 -114 75 -30 17
-80 46 -110 65 -66 41 -96 43 -141 10 -19 -13 -44 -32 -57 -41 -29 -21 -93
-20 -109 2 -6 9 -17 13 -23 9 -8 -5 -1 -19 22 -43 18 -20 25 -30 16 -23 -23
17 -23 18 7 -54 30 -72 34 -120 5 -58 -11 23 -24 53 -30 67 -5 15 -14 26 -20
26 -5 0 -10 8 -10 18 -1 16 -1 16 -11 -1 -5 -9 -26 -56 -45 -104 -48 -118 -53
-122 -28 -18 3 14 0 12 -10 -6 -16 -28 -36 -132 -36 -191 0 -22 -5 -38 -11
-38 -8 0 -10 -39 -6 -137 8 -175 6 -168 45 -210 18 -19 31 -38 28 -41 -8 -7
-37 19 -46 43 -9 20 -9 20 -9 -1 -1 -22 37 -64 57 -64 7 0 13 -8 14 -17 0 -10
2 -23 2 -30 1 -6 5 -15 9 -19 13 -14 7 -41 -18 -78 -28 -41 -23 -46 13 -13 24
22 25 22 14 0 -12 -21 -11 -21 103 -22 91 -1 120 2 140 15 19 12 28 14 38 5 8
-6 17 -8 20 -4 4 3 7 1 7 -5 0 -7 7 -12 16 -12 14 0 14 3 4 15 -10 13 -9 15
11 15 13 0 35 3 48 7 20 5 22 3 16 -16 -10 -33 9 -25 59 26 25 25 46 42 46 38
0 -5 -17 -26 -37 -47 l-37 -38 34 0 c18 0 42 8 53 17 18 17 20 17 31 1 10 -13
28 -17 77 -17 37 1 67 5 71 12 6 9 8 9 8 0 0 -10 31 -13 120 -13 84 0 120 3
120 12 0 6 -17 34 -39 62 -57 76 -60 86 -10 36 l44 -45 3 72 c3 70 1 75 -41
145 -23 40 -49 92 -57 115 -7 23 -17 40 -23 36 -6 -3 -7 -1 -3 5 3 6 2 86 -4
179 -11 161 -31 263 -51 263 -6 0 -7 5 -3 12 4 7 3 8 -4 4 -11 -7 -17 6 -12
29 1 6 -2 6 -9 0 -7 -7 -3 -30 15 -74 20 -50 26 -80 25 -134 -1 -39 -3 -72 -5
-74 -1 -2 -13 29 -26 69 -28 90 -86 204 -134 262 -41 51 -120 106 -150 106
-15 -1 -8 -7 21 -22z m-176 -30 c17 -13 55 -60 85 -104 64 -96 171 -319 120
-248 -8 10 -18 16 -22 12 -4 -5 -16 11 -26 33 -10 23 -32 57 -48 76 -34 38
-41 30 -10 -10 22 -27 74 -157 66 -164 -2 -2 -7 5 -11 17 -14 43 -89 147 -158
218 -40 39 -75 72 -80 72 -11 0 -57 -101 -62 -137 -2 -15 -7 -37 -10 -49 -6
-18 -2 -20 37 -22 34 -2 49 2 64 19 21 24 66 49 86 49 7 -1 0 -7 -17 -14 -16
-7 -41 -23 -54 -35 l-24 -21 36 0 c39 0 51 -9 98 -75 19 -26 37 -41 45 -38 18
7 18 8 -7 53 -12 21 -32 44 -45 51 -13 7 -22 14 -20 16 10 10 57 -32 79 -71
l23 -42 -55 -32 c-65 -37 -106 -70 -98 -78 3 -3 22 6 42 22 27 20 39 24 47 16
8 -8 8 -12 1 -12 -5 0 -26 -11 -46 -24 -19 -13 -37 -23 -39 -21 -2 3 -4 -6 -3
-20 0 -26 15 -48 15 -23 0 16 36 51 76 74 16 9 17 14 6 26 -10 13 -9 16 10 21
15 4 26 0 35 -13 8 -11 18 -20 23 -20 12 0 0 32 -14 42 -7 5 -7 8 2 8 7 0 17
-12 22 -26 13 -34 13 -34 -12 -34 -51 -1 -153 -68 -134 -87 4 -5 12 0 17 10
14 23 29 22 29 -4 0 -29 39 -117 55 -123 18 -6 96 15 90 24 -3 5 -2 11 3 14 5
3 9 -16 11 -42 1 -41 -2 -51 -28 -76 -18 -17 -34 -25 -42 -21 -7 5 -10 4 -6
-2 9 -15 -43 -40 -110 -52 -69 -13 -161 -3 -210 23 -70 36 -125 128 -94 159 6
6 11 16 11 21 0 6 -4 5 -9 -3 -7 -10 -9 -8 -9 10 0 13 -5 44 -10 69 -7 28 -7
49 -1 54 5 6 9 0 9 -17 0 -26 38 -115 64 -150 29 -38 65 11 53 72 -9 44 -92
121 -131 121 -43 0 -49 -14 -25 -56 27 -47 20 -43 -15 9 -19 28 -26 49 -24 80
l1 42 4 -42 c5 -56 33 -49 33 8 0 21 3 39 6 39 11 0 94 -73 94 -83 0 -5 -10
-2 -22 9 l-23 19 19 -22 c10 -13 23 -20 29 -16 5 3 7 2 4 -4 -4 -6 5 -21 18
-33 14 -13 25 -18 25 -12 0 6 -5 14 -10 17 -6 4 -16 21 -24 39 -7 18 -39 54
-69 80 l-56 48 15 30 c9 17 24 33 35 35 11 3 16 10 12 17 -4 6 2 4 12 -4 14
-11 19 -12 22 -2 3 6 9 10 14 6 5 -3 9 -1 9 5 0 5 -4 13 -10 16 -5 3 -10 12
-9 18 0 7 7 2 16 -10 22 -32 30 -29 27 10 -3 28 -3 29 5 7 6 -20 9 -11 16 45
7 66 33 136 55 150 5 3 10 11 10 17 0 6 -7 5 -17 -3 -17 -13 -17 -13 -3 6 23
30 33 40 55 53 26 15 21 15 56 -10z m173 -119 c25 -34 46 -65 46 -71 0 -9 -38
38 -90 111 -40 58 -5 25 44 -40z m-439 -19 c3 -5 1 -10 -4 -10 -6 0 -11 5 -11
10 0 6 2 10 4 10 3 0 8 -4 11 -10z m191 -92 c-18 -26 -22 -17 -5 14 6 11 13
17 16 15 3 -3 -2 -16 -11 -29z m-221 -56 c-3 -3 -11 0 -18 7 -9 10 -8 11 6 5
10 -3 15 -9 12 -12z m352 12 c-3 -3 -12 -4 -19 -1 -8 3 -5 6 6 6 11 1 17 -2
13 -5z m153 -124 c5 0 10 5 12 12 3 7 7 6 11 -5 5 -13 1 -17 -18 -17 -20 0
-25 5 -24 23 1 16 2 18 6 5 2 -10 8 -18 13 -18z m-535 -20 c3 -5 1 -10 -4 -10
-6 0 -11 5 -11 10 0 6 2 10 4 10 3 0 8 -4 11 -10z m575 -27 c0 -15 -2 -16 -10
-3 -8 13 -10 13 -10 -2 0 -9 5 -29 10 -43 8 -20 7 -26 -2 -23 -7 3 -13 9 -13
14 -1 5 -5 20 -9 33 -6 16 -4 26 5 32 21 13 29 11 29 -8z m183 -82 c16 -62
-12 -134 -62 -160 -16 -9 -16 -6 -7 39 7 36 13 47 24 42 12 -4 14 1 9 28 -6
28 -5 31 8 20 9 -8 15 -8 15 -2 0 22 -13 42 -26 42 -15 0 -19 12 -7 24 15 15
37 -1 46 -33z m-658 -79 c0 -6 6 -17 13 -23 6 -7 12 -19 12 -26 0 -7 5 -13 10
-13 6 0 10 8 10 17 0 12 3 14 11 6 14 -14 2 -56 -14 -50 -12 4 -65 84 -66 100
-1 5 5 7 12 5 6 -3 12 -10 12 -16z m351 -23 c14 -41 36 -48 57 -19 18 25 28
14 16 -17 -8 -23 -50 -40 -69 -28 -15 9 -50 86 -44 97 11 17 29 2 40 -33z
m148 -20 c12 -119 7 -221 -14 -267 -10 -23 -22 -42 -25 -42 -3 0 1 13 10 30
18 34 20 149 5 253 -6 38 -8 73 -4 78 13 21 22 5 28 -52z m13 29 c-3 -7 -5 -2
-5 12 0 14 2 19 5 13 2 -7 2 -19 0 -25z m-580 -40 c-3 -8 -6 -5 -6 6 -1 11 2
17 5 13 3 -3 4 -12 1 -19z m-11 -134 c24 -58 15 -60 -18 -3 -33 54 -58 105
-58 116 0 12 63 -81 76 -113z m62 -29 c-3 -3 -9 2 -12 12 -6 14 -5 15 5 6 7
-7 10 -15 7 -18z m472 11 c0 -8 -9 -24 -21 -37 l-20 -24 18 30 c18 28 18 29
-2 22 -20 -7 -20 -7 -1 8 24 18 26 19 26 1z m-70 -41 c0 -2 -10 -9 -22 -15
-22 -11 -22 -10 -4 4 21 17 26 19 26 11z m30 -28 c0 -2 -10 -12 -22 -23 l-23
-19 19 23 c18 21 26 27 26 19z m21 -14 c-5 -10 -24 -31 -42 -48 -39 -36 -28
-13 15 32 35 37 41 40 27 16z m303 -30 c14 -24 24 -43 21 -43 -7 0 -55 73 -55
84 0 12 2 9 34 -41z m-554 17 c0 -4 -16 -10 -36 -12 -35 -4 -35 -4 -13 13 22
16 49 16 49 -1z m164 -53 c-3 -8 -15 -15 -27 -15 -12 0 -44 -3 -71 -6 -56 -6
-109 9 -86 24 8 6 42 7 75 4 32 -2 56 -2 52 2 -4 5 5 13 20 19 31 13 48 0 37
-28z m165 1 c-1 -40 -1 -41 -9 -15 -8 26 -4 57 6 57 2 0 4 -19 3 -42z m28 -5
c-3 -10 -5 -2 -5 17 0 19 2 27 5 18 2 -10 2 -26 0 -35z m-403 13 c-3 -8 -1
-17 5 -21 16 -9 13 -25 -3 -25 -8 0 -17 -6 -19 -12 -4 -10 -7 -10 -15 0 -5 7
-16 10 -24 7 -12 -5 -15 0 -15 19 0 18 5 26 18 26 10 0 21 5 24 10 10 15 35
12 29 -4z m536 -61 c0 -5 -5 -3 -10 5 -5 8 -10 20 -10 25 0 6 5 3 10 -5 5 -8
10 -19 10 -25z"/>
<path d="M600 928 c41 -45 50 -53 50 -45 0 2 -21 23 -47 47 l-48 45 45 -47z"/>
<path d="M796 350 c-5 -14 -15 -33 -24 -43 -8 -9 -13 -20 -10 -23 10 -9 50 55
46 74 -3 13 -6 12 -12 -8z"/>
<path d="M440 342 c0 -12 19 -26 26 -19 2 2 -2 10 -11 17 -9 8 -15 8 -15 2z"/>
<path d="M363 1075 c0 -8 4 -12 9 -9 5 3 6 10 3 15 -9 13 -12 11 -12 -6z"/>
<path d="M246 935 c-9 -26 -7 -32 5 -12 6 10 9 21 6 23 -2 3 -7 -2 -11 -11z"/>
<path d="M111 664 c0 -11 3 -14 6 -6 3 7 2 16 -1 19 -3 4 -6 -2 -5 -13z"/>
<path d="M112 540 c0 -14 2 -19 5 -12 2 6 2 18 0 25 -3 6 -5 1 -5 -13z"/>
<path d="M130 533 c0 -5 5 -15 10 -23 8 -12 10 -11 10 8 0 12 -4 22 -10 22 -5
0 -10 -3 -10 -7z"/>
<path d="M136 481 c-6 -9 19 -71 28 -71 5 0 -11 70 -17 76 -3 3 -8 1 -11 -5z"/>
<path d="M190 247 c0 -9 10 -22 23 -28 l22 -12 -20 24 c-11 13 -21 26 -22 28
-2 2 -3 -3 -3 -12z"/>
</g>
</svg>
